<svg xmlns="http://www.w3.org/2000/svg" viewBox="0 0 64 64" fill="none">
  <!-- Весы правосудия -->
  <circle cx="32" cy="32" r="30" fill="#1e1b4b" stroke="#6366f1" stroke-width="2"/>
  <!-- Столб весов -->
  <line x1="32" y1="14" x2="32" y2="48" stroke="#818cf8" stroke-width="2.5" stroke-linecap="round"/>
  <!-- Основание -->
  <path d="M24 48 L40 48" stroke="#818cf8" stroke-width="2.5" stroke-linecap="round"/>
  <!-- Перекладина -->
  <line x1="16" y1="22" x2="48" y2="22" stroke="#818cf8" stroke-width="2.5" stroke-linecap="round"/>
  <!-- Левая чаша -->
  <path d="M12 30 C12 34 16 36 20 36 C24 36 28 34 28 30 L24 22 L16 22 Z" fill="#6366f1" opacity="0.6"/>
  <!-- Правая чаша -->
  <path d="M36 30 C36 34 40 36 44 36 C48 36 52 34 52 30 L48 22 L40 22 Z" fill="#8b5cf6" opacity="0.6"/>
  <!-- AI нейронные точки -->
  <circle cx="20" cy="22" r="2" fill="#a78bfa"/>
  <circle cx="44" cy="22" r="2" fill="#a78bfa"/>
  <circle cx="32" cy="14" r="2.5" fill="#c4b5fd"/>
  <!-- AI свечение -->
  <circle cx="32" cy="14" r="4" fill="#8b5cf6" opacity="0.3"/>
</svg>
